<svg t="1676811498189" class="icon" viewBox="0 0 1024 1024" version="1.1" xmlns="http://www.w3.org/2000/svg" p-id="35382" width="200" height="200"><path d="M512.149985 512.049995m-511.950005 0a511.950005 511.950005 0 1 0 1023.90001 0 511.950005 511.950005 0 1 0-1023.90001 0Z" fill="#00C9CA" p-id="35383"></path><path d="M1021.100283 456.255444L616.339811 222.878235l-206.179866 227.977736L526.94854 519.449273H388.162094l-113.788888 5.799433-66.293526 138.886437v72.19295L646.936823 1006.001758c217.378772-59.194219 377.163168-257.874817 377.163167-494.051753 0-18.798164-0.999902-37.396348-2.999707-55.694561z" fill="#00BAB5" p-id="35384"></path><path d="M448.056245 230.277512l-37.8963 15.498486v194.481008l18.898155 10.598965H590.942291l34.396641-22.597793V252.675325l-21.19793-22.397813z" fill="#FFFFFF" p-id="35385"></path><path d="M500.651108 450.855971h27.397325V587.942584h-27.397325z" fill="#FFFFFF" p-id="35386"></path><path d="M584.942877 464.554633H443.056733c-30.197051 0-54.894639-24.697588-54.894639-54.894639V267.77385c0-30.197051 24.697588-54.894639 54.894639-54.894639H584.942877c30.197051 0 54.894639 24.697588 54.894639 54.894639v141.886144c0 30.197051-24.697588 54.894639-54.894639 54.894639zM443.056733 240.376526c-15.098526 0-27.397324 12.298799-27.397325 27.397324v141.886144c0 15.098526 12.298799 27.397324 27.397325 27.397325H584.942877c15.098526 0 27.397324-12.298799 27.397324-27.397325V267.77385c0-15.098526-12.298799-27.397324-27.397324-27.397324H443.056733z" fill="#FFAD00" p-id="35387"></path><path d="M512.249976 664.035153m-72.19295 0a72.19295 72.19295 0 1 0 144.385899 0 72.19295 72.19295 0 1 0-144.385899 0Z" fill="#FFFFFF" p-id="35388"></path><path d="M763.225466 664.035153m-72.19295 0a72.19295 72.19295 0 1 0 144.3859 0 72.19295 72.19295 0 1 0-144.3859 0Z" fill="#FFFFFF" p-id="35389"></path><path d="M514.349771 753.926374c-49.395176 0-89.791231-40.496045-89.791232-89.791231 0-49.395176 40.496045-89.791231 89.791232-89.791231 49.395176 0 89.791231 40.496045 89.791231 89.791231S563.744947 753.926374 514.349771 753.926374z m0-152.285128c-34.296651 0-62.393907 28.097256-62.393907 62.393907s28.097256 62.393907 62.393907 62.393907 62.393907-28.097256 62.393906-62.393907c0-34.19666-28.097256-62.393907-62.393906-62.393907z" fill="#FFAD00" p-id="35390"></path><path d="M776.924129 587.942584h-27.397325v-54.894639H275.073137V587.942584h-27.397324v-82.291964H776.924129V587.942584z" fill="#FFFFFF" p-id="35391"></path><path d="M763.225466 753.926374c-49.395176 0-89.791231-40.496045-89.791231-89.791231 0-49.395176 40.496045-89.791231 89.791231-89.791231 49.395176 0 89.791231 40.496045 89.791232 89.791231S812.620643 753.926374 763.225466 753.926374z m0-152.285128c-34.296651 0-62.393907 28.097256-62.393907 62.393907s28.097256 62.393907 62.393907 62.393907 62.393907-28.097256 62.393907-62.393907c0-34.19666-28.097256-62.393907-62.393907-62.393907z" fill="#FFAD00" p-id="35392"></path><path d="M261.374475 664.035153m-72.19295 0a72.19295 72.19295 0 1 0 144.3859 0 72.19295 72.19295 0 1 0-144.3859 0Z" fill="#FFFFFF" p-id="35393"></path><path d="M261.374475 753.926374c-49.395176 0-89.791231-40.496045-89.791231-89.791231 0-49.395176 40.496045-89.791231 89.791231-89.791231 49.395176 0 89.791231 40.496045 89.791231 89.791231S310.669661 753.926374 261.374475 753.926374z m0-152.285128c-34.296651 0-62.393907 28.097256-62.393907 62.393907s28.097256 62.393907 62.393907 62.393907 62.393907-28.097256 62.393907-62.393907c0-34.19666-28.097256-62.393907-62.393907-62.393907z" fill="#FFAD00" p-id="35394"></path></svg>