<svg t="1676811626805" class="icon" viewBox="0 0 1024 1024" version="1.1" xmlns="http://www.w3.org/2000/svg" p-id="42521" width="200" height="200"><path d="M517.12 517.12m-460.8 0a460.8 460.8 0 1 0 921.6 0 460.8 460.8 0 1 0-921.6 0Z" fill="#FFDEDE" p-id="42522"></path><path d="M578.56 747.52c0 31.232-25.088 56.32-56.32 56.32s-56.32-25.088-56.32-56.32" fill="#EF6666" p-id="42523"></path><path d="M787.968 509.44c-15.36 0-28.672-11.776-30.72-27.648-7.68-74.752-43.008-143.36-95.744-188.416-12.8-10.752-14.336-30.208-3.584-43.52 10.752-12.8 30.208-14.336 43.52-3.584 64.512 55.296 107.52 138.752 116.736 228.352 1.536 16.896-10.24 32.256-27.136 33.792-1.024 1.024-2.048 1.024-3.072 1.024zM249.344 510.464h-3.072c-16.896-1.536-29.184-16.896-27.648-33.792 9.216-90.112 51.712-173.056 115.712-228.864 12.8-11.264 32.256-9.728 43.52 3.072s9.728 32.256-3.072 43.52c-52.736 45.056-87.04 114.176-94.72 188.416-1.536 15.872-14.848 27.648-30.72 27.648z" fill="#EF6666" p-id="42524"></path><path d="M760.32 707.584l-43.008-77.824v-112.64c0-111.616-71.68-204.288-165.888-222.208V271.36c0-16.896-13.824-30.72-30.72-30.72s-30.72 13.824-30.72 30.72v23.04c-96.256 15.36-169.984 109.056-169.984 222.72v112.64l-39.936 78.336c-3.072 6.144 1.024 13.824 7.168 13.824h466.432c6.144 0 10.24-8.192 6.656-14.336z" fill="#EF6666" p-id="42525"></path></svg>