<svg t="1676811575324" class="icon" viewBox="0 0 1024 1024" version="1.1" xmlns="http://www.w3.org/2000/svg" p-id="39103" width="200" height="200"><path d="M512 0A512 512 0 1 1 0 512 512 512 0 0 1 512 0z" fill="#E19904" p-id="39104"></path><path d="M247.676343 318.902857h305.620114a41.179429 41.179429 0 0 0 41.179429-41.223314v-31.685486A41.091657 41.091657 0 0 0 553.296457 204.8H247.676343a41.194057 41.194057 0 0 0-41.150172 41.194057v31.714743a41.091657 41.091657 0 0 0 41.150172 41.194057z" fill="#FFFFFF" p-id="39105"></path><path d="M500.896914 467.192686a228.864 228.864 0 0 1 47.9232-42.2912v-30.588343a41.091657 41.091657 0 0 0-41.135543-41.194057H202.049829A41.194057 41.194057 0 0 0 160.914286 394.313143v31.714743a41.091657 41.091657 0 0 0 41.135543 41.194057h298.876342z" fill="#FFFFFF" p-id="39106"></path><path d="M206.526171 542.632229v31.714742a41.091657 41.091657 0 0 0 41.135543 41.194058h198.436572a226.947657 226.947657 0 0 1 30.529828-114.102858H247.676343a41.1648 41.1648 0 0 0-41.150172 41.194058z" fill="#FFFFFF" p-id="39107"></path><path d="M224.855771 649.698743a41.179429 41.179429 0 0 0-41.135542 41.194057v31.714743a41.091657 41.091657 0 0 0 41.135542 41.194057h276.041143a227.313371 227.313371 0 0 1-52.224-114.102857z" fill="#FFFFFF" p-id="39108"></path><path d="M674.318629 421.522286a193.960229 193.960229 0 1 0 193.974857 193.974857 193.974857 193.974857 0 0 0-193.974857-193.974857z m77.370514 225.762743a14.394514 14.394514 0 1 1 0 28.730514h-54.710857v31.173486a20.406857 20.406857 0 0 1-40.740572 0v-31.1296h-54.754743a14.394514 14.394514 0 1 1 0-28.730515h54.754743v-20.743314h-54.754743a14.394514 14.394514 0 1 1 0-28.715886h54.754743v-16.091428l-55.105828-52.809143a16.091429 16.091429 0 0 1 0.234057-23.639772 18.549029 18.549029 0 0 1 25.117257 0.2048l50.146743 48.054858 50.146743-48.054858a18.549029 18.549029 0 0 1 25.117257-0.2048 16.091429 16.091429 0 0 1 0.234057 23.639772l-55.105829 52.809143v16.091428h54.754743a14.394514 14.394514 0 1 1 0 28.715886h-54.798628v20.743314h54.710857z" fill="#FFFFFF" p-id="39109"></path></svg>