<svg t="1690981308826" class="icon" viewBox="0 0 1024 1024" version="1.1" xmlns="http://www.w3.org/2000/svg" p-id="2395" width="200" height="200"><path d="M519.572299 65.387829c-244.564805 0-442.774858 198.210053-442.774857 442.774857S275.007495 950.937544 519.572299 950.937544s442.774858-198.210053 442.774858-442.774858S764.137104 65.387829 519.572299 65.387829z m273.523734 663.087838c14.632957 14.632957 14.632957 38.577796 0 53.313081-14.632957 14.632957-38.577796 14.632957-53.313081 0L519.572299 561.475767 299.361647 781.68642c-14.632957 14.632957-38.577796 14.632957-53.313081 0-14.632957-14.632957-14.632957-38.577796 0-53.313081l220.210653-220.210653-220.210653-220.210652c-14.632957-14.632957-14.632957-38.577796 0-53.313081 14.632957-14.632957 38.577796-14.632957 53.313081 0l220.210652 220.210652L739.782952 234.638953c14.632957-14.632957 38.577796-14.632957 53.313081 0 14.632957 14.632957 14.632957 38.577796 0 53.313081L572.783052 508.162686 793.096033 728.475667z" p-id="2396"></path></svg>