<?xml version="1.0" encoding="UTF-8"?>
<svg width="369px" height="427px" viewBox="0 0 369 427" version="1.1" xmlns="http://www.w3.org/2000/svg" xmlns:xlink="http://www.w3.org/1999/xlink">
    <!-- Generator: Sketch 60.1 (88133) - https://sketch.com -->
    <title>植物4</title>
    <desc>Created with Sketch.</desc>
    <g id="页面-1" stroke="none" stroke-width="1" fill="none" fill-rule="evenodd">
        <g id="画板" transform="translate(-6276.000000, -7001.000000)">
            <g id="植物4" transform="translate(6460.500000, 7238.500000) scale(-1, 1) translate(-6460.500000, -7238.500000) translate(6276.000000, 7001.000000)">
                <path d="M245.263548,378.232684 C174.932567,342.563029 115.368902,336.773459 66.5725539,360.863975 C146.17348,366.434254 203.828535,392.923166 239.537718,440.330711 L245.263548,378.232684 Z" id="路径-358" fill="#ADDFFF" transform="translate(155.918051, 393.313817) rotate(-26.000000) translate(-155.918051, -393.313817) "></path>
                <path d="M276.831403,415 C234.576722,384.106016 182.977257,362.000783 122.033006,348.684301 C30.6166297,328.709578 11.1120747,323.256715 1.06405603,282.948999 C-8.98396269,242.641283 54.4435568,228 93.9124425,228 C120.225033,228 157.083733,228 204.488542,228 C220.879233,256.282597 229.074578,281.883744 229.074578,304.803443 C235.851483,276.595685 239.239935,254.189506 239.239935,237.584905 C258.887372,240.49087 271.745931,243.216107 277.815611,245.760617 L278,407.223162 L276.831403,415 Z" id="路径-359" fill="#F4BB42"></path>
                <path d="M73.3364338,249.007112 C94.7447726,253.972112 114.943643,267.486684 133.932723,289.54137 C134.032202,289.656909 134.019944,289.831877 133.905344,289.932171 C133.790744,290.032466 133.617199,290.020107 133.51772,289.904568 C114.600142,267.932927 94.4987555,254.483579 73.2132366,249.547064 C73.0653453,249.512765 72.9730343,249.364088 73.0070543,249.214984 C73.0372942,249.082448 73.1571724,248.994187 73.2873074,249.000299 L73.3364338,249.007112 Z" id="路径-296" fill="#115682" fill-rule="nonzero"></path>
                <path d="M166.575049,295.042786 C166.704123,294.961457 166.875104,294.999508 166.956945,295.127775 C167.038785,295.256042 167,295.425954 166.871421,295.507283 C135.552257,315.241435 106.360945,326.07385 79.2965018,327.999286 C79.1440585,328.010131 79.0116318,327.896116 79,327.744626 C78.9898049,327.593135 79.1045375,327.461536 79.2569808,327.450691 C106.221708,325.532349 135.328058,314.731461 166.575049,295.042786 Z" id="路径-297" fill="#115682" fill-rule="nonzero"></path>
                <path d="M167.06146,242.101941 C167.157034,241.983648 167.329848,241.965686 167.447451,242.061821 C183.09199,254.85054 197.93166,277.701349 211.977681,310.615061 C212.037457,310.755132 211.973027,310.917424 211.833773,310.97755 C211.69452,311.037677 211.533174,310.972869 211.473399,310.832798 C197.459261,277.993799 182.664837,255.212661 167.101346,242.490196 C166.983744,242.394061 166.965886,242.220234 167.06146,242.101941 Z" id="路径-298" fill="#115682" fill-rule="nonzero"></path>
                <path d="M238.570298,323.047417 C238.696406,322.96188 238.867659,322.995243 238.952802,323.121935 C239.037945,323.248626 239.004736,323.420672 238.878627,323.506209 L237.478206,324.453763 C214.714798,339.817797 197.34829,349.660346 185.368727,353.983627 C185.225527,354.035307 185.067738,353.960577 185.016297,353.816714 C184.964856,353.67285 185.039241,353.514332 185.182442,353.462652 C197.353103,349.070406 215.152579,338.931209 238.570298,323.047417 Z" id="路径-299" fill="#115682" fill-rule="nonzero"></path>
                <path d="M1.80834838,277.149143 C111.055775,274.935247 205.988324,297.368817 286.589894,344.45627 C286.983676,344.686317 287.117084,345.193191 286.88787,345.588403 C286.658656,345.983616 286.153618,346.11751 285.759837,345.887462 C205.431846,298.959834 110.79782,276.596808 1.84165768,278.804802 C1.38611583,278.814033 1.00936966,278.450885 1,277.993687 C0.990973444,277.53649 1.35280653,277.158374 1.80834838,277.149143 Z" id="路径-295" fill="#115682" fill-rule="nonzero"></path>
                <path d="M216.984047,378.550626 C96.3441049,255.166936 45.236685,129.297387 63.6617871,0.941978048 C89.0261925,-2.95004091 125.597422,5.21858071 173.375474,25.4478429 C173.611407,61.2404035 173.729374,79.1366838 173.729374,79.1366838 L203.547814,44.619699 C227.993994,62.6815971 245.523187,77.4120289 256.135396,88.8109944 L212.079666,184.610557 L224.035737,205.560249 L284.122166,127.696946 C319.191713,169.042481 346.153449,235.845387 365.007376,328.105665 C393.288265,466.496081 263.089047,422.593821 233.31843,394.320946 L221.618171,383.139314 L216.984047,378.550626 Z" id="路径-360" fill="#99E2A1"></path>
                <path d="M55.9010439,2.94610728 L55.6989408,2.97710722 L55.6699314,3.17912078 C37.2050938,131.763271 88.4190971,257.848184 209.287901,381.419745 L213.931817,386.016461 L225.652373,397.213364 C233.394205,404.562964 247.392466,412.570171 262.912991,418.337436 C280.450202,424.854081 298.303742,428.014335 313.606062,426.711056 C331.524255,425.184986 345.305117,417.682063 353.494042,403.650127 C362.856258,387.607727 364.693443,363.458339 357.991257,330.673951 C339.101834,238.274515 312.085148,171.360476 276.930194,129.929738 L276.709594,129.669756 L216.58101,207.557537 L204.883384,187.067784 L249.020427,91.1279075 L248.894798,90.9930152 C238.466274,79.7955376 221.387428,65.4001675 197.655104,47.8023877 L195.988055,46.569021 L166.43903,80.7604339 L166.088687,27.567272 L165.921765,27.4966234 C118.032129,7.22769404 81.3638329,-0.959547971 55.9010439,2.94610728 Z M164.275674,27.4000964 L165.539383,27.9326662 L165.897542,82.2308198 L196.070588,47.3153261 L198.020299,48.7595103 C221.126314,65.926048 237.843971,80.0159399 248.1703,91.0249346 L248.364883,91.2329499 L204.264129,187.095153 L216.512603,208.54918 L276.728881,130.546586 L276.509265,130.285516 C311.59407,171.633584 338.57825,238.467114 357.450799,330.784009 C364.128311,363.447703 362.30117,387.465078 353.017406,403.373049 C344.926378,417.237235 331.309763,424.650734 313.559162,426.162531 C298.52154,427.443266 280.980071,424.383568 263.707856,418.043992 L263.10545,417.821515 C247.649612,412.078287 233.714389,404.107138 226.033158,396.815071 L214.316731,385.622171 L209.67946,381.032021 L206.077715,377.327647 C89.102857,256.293908 38.9780664,132.890946 55.6836728,7.10845172 L56.1877907,3.45991095 L55.9848322,3.4902374 C81.0702736,-0.357537713 117.172342,7.60878962 164.275674,27.4000964 Z" id="路径-360" fill="#115682" fill-rule="nonzero"></path>
                <polygon id="路径-460" fill="#115682" fill-rule="nonzero" points="137.466387 17 138 17.030719 133.533613 100 133 99.969281"></polygon>
                <path d="M96.2506977,153 C129.166453,170.006673 160.450324,181.104392 190.101965,186.29441 L191,186.449875 L190.908038,187 C161.231508,181.919423 129.928403,170.92274 96.9983775,154.011204 L96,153.496923 L96.2506977,153 Z" id="路径-461" fill="#115682" fill-rule="nonzero"></path>
                <path d="M143.127854,255 C166.387829,260.494706 197.930217,261.838251 237.750614,259.027287 L238.959827,258.940835 L239,259.485513 C198.961312,262.384103 167.199209,261.122354 143.709284,255.69692 L143,255.531238 L143.127854,255 Z" id="路径-227" fill="#115682" fill-rule="nonzero"></path>
                <path d="M148.394708,132.038275 C165.929306,136.401314 189.712099,137.46862 219.738656,135.236547 L220.650463,135.167898 L220.692354,135.716709 L218.869337,135.852224 C189.520786,137.977617 166.164692,136.929375 148.796886,132.704068 L148.261646,132.572375 L148.394708,132.038275 Z" id="路径-227" fill="#115682" fill-rule="nonzero" transform="translate(184.477000, 134.478954) rotate(-84.000000) translate(-184.477000, -134.478954) "></path>
                <path d="M66.3633162,2.14159957 C66.7187234,1.90130865 67.1939877,1.97521855 67.4613565,2.29981799 L67.5089718,2.36360265 L345.858512,414.711841 C346.11362,415.089759 346.014304,415.603091 345.636684,415.8584 C345.281277,416.098691 344.806012,416.024781 344.538644,415.700182 L344.491028,415.636397 L66.141488,3.28815868 C65.8863801,2.91024067 65.9856959,2.39690867 66.3633162,2.14159957 Z" id="路径-226" fill="#115682" fill-rule="nonzero"></path>
            </g>
        </g>
    </g>
</svg>