<svg t="1694831906877" class="icon" viewBox="0 0 1024 1024" version="1.1" xmlns="http://www.w3.org/2000/svg" p-id="4295" width="200" height="200"><path d="M512 85.333333C277.333333 85.333333 85.333333 277.333333 85.333333 512s192 426.666667 426.666667 426.666667 426.666667-192 426.666667-426.666667S746.666667 85.333333 512 85.333333z m0 768c-187.733333 0-341.333333-153.6-341.333333-341.333333s153.6-341.333333 341.333333-341.333333 341.333333 153.6 341.333333 341.333333-153.6 341.333333-341.333333 341.333333z"  p-id="4296"></path><path d="M512 665.6c-12.8 0-25.6 4.266667-34.133333 12.8-8.533333 8.533333-12.8 21.333333-12.8 34.133333 0 17.066667 4.266667 25.6 12.8 38.4 8.533333 8.533333 21.333333 12.8 38.4 12.8 12.8 0 25.6-4.266667 38.4-12.8 8.533333-8.533333 12.8-21.333333 12.8-38.4 0-12.8-4.266667-25.6-12.8-34.133333-17.066667-8.533333-29.866667-12.8-42.666667-12.8zM516.266667 256c-17.066667 0-29.866667 4.266667-38.4 17.066667-8.533333 12.8-12.8 25.6-12.8 42.666666 0 12.8 0 38.4 4.266666 68.266667l12.8 162.133333c4.266667 42.666667 12.8 64 34.133334 64s34.133333-21.333333 34.133333-59.733333l12.8-166.4c0-17.066667 4.266667-34.133333 4.266667-46.933333 0-25.6-4.266667-42.666667-8.533334-51.2-8.533333-21.333333-25.6-29.866667-42.666666-29.866667z"  p-id="4297"></path></svg>