<svg t="1672994420313" class="icon" fill="#fff" viewBox="0 0 1024 1024" version="1.1" xmlns="http://www.w3.org/2000/svg" p-id="4359" width="200" height="200"><path d="M927.01 958.45H96.9c-18.08 0-34.58-9.38-44.13-25.1-9.79-16.12-10.47-36.54-1.77-53.29L476.65 60.47c9.15-17.62 26.95-28.46 46.42-28.24 19.5 0.2 37.08 11.4 45.87 29.23l404.47 819.59c8.38 16.98 7.43 36.71-2.56 52.77-9.59 15.42-25.98 24.63-43.84 24.63z m-811.37-64h793.01L522.26 111.49 115.64 894.45z" p-id="4360"></path><path d="M543.7 365.95h-63.4c-5.64 0-10.16 4.07-10 9l9.42 282.51c0.16 4.73 4.59 8.49 10 8.49h44.57c5.41 0 9.84-3.76 10-8.49l9.42-282.51c0.15-4.93-4.37-9-10.01-9zM512 715.08c-21.26 0-38.49 17.23-38.49 38.49s17.23 38.49 38.49 38.49 38.49-17.23 38.49-38.49c0-21.25-17.23-38.49-38.49-38.49z"  p-id="4361"></path></svg>